<svg width="862" height="721" xmlns="http://www.w3.org/2000/svg" xmlns:xlink="http://www.w3.org/1999/xlink" overflow="hidden"><defs><clipPath id="clip0"><rect x="1777" y="693" width="862" height="721"/></clipPath></defs><g clip-path="url(#clip0)" transform="translate(-1777 -693)"><path d="M2209.76 1352.48C2167.62 1352.25 2128.37 1344.34 2091.93 1328.74 2055.3 1312.94 2023.16 1291.19 1995.53 1263.52 1967.66 1235.81 1945.93 1203.64 1930.38 1166.95 1914.8 1130.5 1906.91 1091.16 1906.68 1049L1778 1049C1782.6 1096.21 1794.35 1139.82 1813.22 1179.79 1831.86 1220.01 1855.9 1255.71 1885.29 1286.88 1914.67 1318.09 1947.47 1343.91 1983.67 1364.32 2019.67 1384.99 2057.28 1399.25 2096.57 1407.15 2135.62 1415.29 2174.34 1416.17 2212.72 1409.81 2252.64 1404.97 2289.28 1394.11 2322.63 1377.2 2355.76 1360.05 2384.81 1338.74 2409.83 1313.24 2434.85 1287.56 2455.13 1259.32 2470.71 1228.58 2486.29 1197.61 2496.4 1165.87 2501 1133.36 2488.27 1175.96 2467.86 1213.65 2439.78 1246.37 2411.48 1279.32 2377.69 1305.14 2338.44 1323.8 2298.95 1342.7 2256.04 1352.25 2209.76 1352.48" fill-rule="evenodd"/><path d="M2073.29 976.452C2074.39 963.723 2079.44 953.418 2088.44 945.494 2097.45 937.604 2108.3 933.877 2121.04 934.314 2133.1 935.419 2143.11 940.018 2151.01 948.146 2169.66 938.044 2190.29 933.44 2212.9 934.314 2234.21 935.856 2253.09 942.335 2269.56 953.72 2286.02 964.934 2298.75 979.407 2307.76 997.169 2316.74 1014.93 2320.7 1034.47 2319.59 1055.73 2318.08 1077.02 2311.69 1095.89 2300.51 1112.34 2289.32 1128.79 2274.83 1141.52 2257.02 1150.52 2239.25 1159.72 2219.72 1163.78 2198.42 1162.67 2177.12 1161.16 2158.23 1154.68 2141.77 1143.27 2125.3 1132.08 2112.57 1117.61 2103.6 1099.85 2094.36 1082.05 2090.42 1062.55 2091.73 1041.26 2092.17 1033.37 2093.38 1025.68 2095.36 1018.22 2088.11 1013.85 2082.49 1008.01 2078.56 1000.8 2074.6 993.543 2072.85 985.422 2073.29 976.452M2191.5 1271.6C2222.45 1273.35 2251.78 1269.31 2279.44 1259.44 2307.09 1249.77 2331.79 1235.4 2353.53 1216.33 2375.27 1197.22 2392.71 1174.53 2405.88 1148.2 2419.05 1122.11 2426.61 1093.57 2428.6 1062.65 2430.35 1031.72 2426.41 1002.44 2416.74 974.806 2406.86 947.139 2392.37 922.462 2373.29 900.765 2354.17 879.042 2331.56 861.586 2305.44 848.424 2279.33 835.262 2250.77 827.601 2219.83 825.39 2188.88 823.642 2159.58 827.704 2131.89 837.575 2104.24 847.447 2079.54 861.921 2057.8 881.022 2036.09 900.097 2018.62 922.694 2005.45 948.784 1992.27 974.905 1984.61 1003.41 1982.39 1034.34 1980.65 1065.3 1984.71 1094.58 1994.59 1122.21 2004.24 1149.85 2018.72 1174.53 2038.04 1196.25 2057.16 1217.97 2079.77 1235.4 2105.88 1248.56 2132.02 1261.73 2160.55 1269.41 2191.5 1271.6" fill="#42AECC" fill-rule="evenodd"/><path d="M2162.8 982.371C2161.72 995.108 2156.65 1005.42 2147.67 1013.32 2138.65 1021.21 2127.76 1024.95 2115.02 1024.51 2107.56 1024.07 2100.86 1021.99 2094.94 1018.26 2092.73 1025.72 2091.41 1033.52 2090.98 1041.64 2089.87 1062.94 2093.84 1082.47 2102.85 1100.25 2112.06 1117.82 2124.9 1132.31 2141.38 1143.73 2157.86 1154.91 2176.76 1161.3 2198.07 1162.81 2219.39 1163.92 2238.93 1159.96 2256.72 1150.98 2274.54 1141.74 2289.03 1128.91 2300.23 1112.44 2311.43 1095.98 2317.81 1077.1 2319.33 1055.79 2320.44 1034.52 2316.48 1014.96 2307.49 997.19 2298.25 979.414 2285.4 964.932 2268.92 953.709 2252.45 942.52 2233.55 936.167 2212.23 934.624 2189.6 933.517 2169.09 938.147 2150.63 948.467 2159.2 957.444 2163.24 968.765 2162.8 982.371M2638 1058.44 2509.15 1058.44C2508.94 1016.28 2500.91 976.997 2485.1 940.538 2469.5 904.113 2447.85 871.955 2420.17 844.068 2392.27 816.412 2360.09 794.776 2323.63 779.186 2286.94 763.391 2247.61 755.39 2205.64 755.158 2159.3 755.595 2116.36 765.14 2076.82 783.817 2037.27 802.674 2003.42 828.478 1975.3 861.202 1946.96 893.899 1926.54 931.563 1914 974.139 1918.64 941.644 1928.63 910.029 1944 879.313 1959.6 848.338 1979.91 820.143 2004.96 794.674 2030.01 768.999 2059.23 747.698 2092.62 730.796 2125.81 713.894 2162.37 703.011 2202.34 698.201 2240.81 691.821 2279.69 692.695 2319.03 700.825 2358.13 708.722 2395.79 722.898 2432.04 743.299 2468.06 763.931 2500.81 789.837 2530.23 821.017 2559.69 852.197 2583.86 887.751 2602.73 927.703 2621.63 967.889 2633.4 1011.47 2638 1058.44" fill-rule="evenodd"/></g></svg>